<?xml version="1.0" encoding="UTF-8"?>
<svg xmlns="http://www.w3.org/2000/svg" viewBox="0 0 426.66 410.23">
  <defs>
    <style>
      .cls-1 {
        fill: #ff0301;
      }

      .cls-2 {
        fill: #010206;
      }
    </style>
  </defs>
  <g id="text">
    <g>
      <path class="cls-1" d="M106.34,308.6c1.43.44.9,3.14.19,4.19-5.16.3-9.09,1.66-10.27,7.19,2.8,20.91-10.55,62.69,21.69,64.04,27.15,1.14,22.26-38.36,21.18-56.12-.25-4.14,1.21-8.88-2.14-11.96-2.51-2.3-6.22-2.75-9.48-3.09l-.03-4.26h29.11c1.28,0,1.05,3.32.02,4.31-12.22,2.15-9.64,7.97-10.1,17.48-1.28,26.58,4.59,63.64-34.07,61.61-17.27-.91-29.09-7.84-30.93-26.08l-.74-47.69c-1.69-4.48-5.28-4.9-9.41-5.91l-.27-3.72h35.24Z"/>
      <path class="cls-1" d="M60.06,308.6v19.61c-4.3.89-3.73-2.63-5.29-5.44-1.79-3.24-3.35-6.22-6.94-7.77-4.51.05-9.41-.78-13.79-.92-3.26-.1-7.79-.67-8.33,3.36-.76,5.63-.47,19.85,0,25.8.09,1.18.36,2.22.64,3.34h16.85c.18,0,3-1.37,3.32-1.58,2.93-1.94,2.7-5.76,4.31-8.56l3.44.3v25.2c-4.81,2.1-3.34-.87-4.18-3.25-3.66-10.4-14.7-4.91-22.83-5.98l-1.53,1.53c1.02,7.41-1.5,19.22.29,26.07,1.29,4.95,6.47,5.4,10.79,5.76l.57,3.41c-9.9.17-19.85-.21-29.75-.03-2.4.05-4.72,1.58-7.04-.27l-.54-2.72c5.78-.81,9.59-1.28,10.93-7.76-1.08-18.02,1.58-37.97.06-55.76-.6-7.07-3.19-9.94-10.48-9.75l-.57-4.64h60.06Z"/>
      <path class="cls-1" d="M198.89,308.6c1.06.33,1.27,2.84.65,3.72-4.37,1.36-8.89,1.79-10.12,7.04-2.65,23.62,7.66,66.73-12.28,83.95-3.77,3.25-9.2,6.29-14,6.93-3.84-5,1.96-5.36,4.82-8.14,4.84-4.71,6.35-15.53,6.75-22.06.98-16.45,1.19-41.34,0-57.67-.3-4.06-.83-6.98-4.95-8.54-3.67-1.39-7.05.35-6.11-5.23h35.24Z"/>
      <path class="cls-1" d="M244.24,308.6l.96,1.54c.32,3.36-5.45,2.3-7.98,4.31-1.27,1.01-2.66,3.42-2.95,5.02-.34,15.08-.05,30.16-.12,45.24,0,2.12-.71,4.23-.67,6.75.04,2.37.84,9.09,1.94,10.93,2.94,4.9,10.85.27,9.03,7.04-1.02.53-2.12.64-3.26.73-7.49.55-23.52.87-30.7,0-2.78-.34-2.23-1.77-2.05-4.26,7.27-.68,10.41-2.56,10.95-10.19.2-2.86-.6-4.92-.62-7.32-.14-15.25,1.41-33.73.05-48.48-.77-8.3-8.83-5.84-10.51-7.88-.87-1.06-.63-3.43.37-3.43h35.55Z"/>
      <path class="cls-1" d="M418,313.81c-.4-2.42-4.05-2.03-5.53-3.06-.97-.67-.36-1.03.39-1.48,1.99-1.18,3.34.07,5.44,0,2.6-.1,4.88-1.44,7.66-.05.16,2.13-2.83,1.74-3.7,3.34-2.66,10.79-1.21,22.37-2.1,33.45l-2.05.44-23.4-27.43c-.4,6.11-1.52,15.14-.58,21.11.72,4.62,6.2,2.02,4.25,6.47h-10.11c-.19,0-1.13-1.24-1.52-1.53,2.3-1.94,4.32-2.06,4.85-5.56.64-4.23.6-18.92.07-23.28-.4-3.29-3.22-4.64-6.15-5.19-1.86-2.45,9.42-2.3,10.66-1.15l20.59,24.16c.34.6,1.23-.55,1.23-.62,0-5.44.81-14.74,0-19.61Z"/>
      <path class="cls-1" d="M320.85,309.21h15.94c.93,0,5.4,1.06,6.44,1.53,5.34,2.4,7.05,10.37,4.19,15.24-3.65,6.21-15.55,5.58-16.19,6.49-.56,5.21-1.5,10.23,4.34,12.29l-.62,1.23h-14.71l-.62-1.23c.86-.89,2.74-1.15,3.43-2.09,2.04-2.8-.61-23.42.9-28.27-.26-2.95-5.94-2.55-3.09-5.19ZM330.97,328.83c7.94,1.76,11.81-4.28,10.28-11.81-1.1-5.42-10.28-7.58-10.28-4.43v16.24Z"/>
      <path class="cls-1" d="M347.21,346.6c-.84-.24-1.08-1.64-.92-2.45,1.15.03,2.3-.05,3.31-.68,4.11-2.55,10.94-27.44,13.59-32.99.92-1.66,3.32-3,4.43-.85l10.85,29.61c.63,1.12,1.31,2.41,2.15,3.37.19.22,4.94,3.37,2.14,3.37h-12.87l-.62-1.23c4.07-1.48,1.35-10.56-1.22-11.03-1.78-.33-9.71-.33-10.77.88-.28.32-2.39,5.77-2.42,6.23-.25,3.87,7.02,2.64,3.99,5.77h-11.65ZM359.77,330.66c1.48-.22,7.66.7,7.97-.94l-3.69-10.71c-.76-.59-5.06,10.85-4.29,11.64Z"/>
      <path class="cls-1" d="M316.26,344.16l-1.01,2.4c-1.16.33-2.44-.62-3.59-.57-1.49.07-10.83,2.04-10.11-.91.56-.83,1.97-1.12,2.5-1.81.91-1.18-1.25-7.99-2.18-8.94s-11.53-.88-12.03-.22c-.67,2.39-3.84,7.14-1.63,9.29.36.35,4.89,1.2,2.93,2.29s-7.53-.42-10.11.91l-2.15-1.53c.88-1.08,2.35-1.26,3.37-2.13,3.59-3.07,10.12-25.23,12.87-31.26,1.7-3.73,2.65-4.62,4.7-.43,4.21,8.63,6.94,22.23,11.62,30.06,1.02,1.7,2.79,2.89,4.81,2.85ZM299.7,330.65c.52-.76-2.39-9.49-3.97-10.4-.61.01-4.52,9.51-3.93,10.35l7.9.05Z"/>
      <path class="cls-1" d="M277.65,308.6l-.36,1.89c-2.26.41-3.51.93-3.89,3.36-1.89,12.03,4.57,31.63-7.44,39.76-1.58,1.07-4.84,2.96-5.47.05,1.31-1.14,2.95-1.91,3.95-3.41,2.78-4.15,2.58-25.71,2.2-31.56-.08-1.18-.6-5.73-.93-6.42-.81-1.67-4.8-1.15-4.61-3.67h16.55Z"/>
      <g>
        <path class="cls-2" d="M282.55,363.76l-.92,3.06h-15.63c-.8,1.53-1.27,9.19.92,9.19h14.1c1.15,0,1.15,3.06,0,3.06h-15.02c-.61,2.24-1.44,8.4.29,9.89.72.62,1.04-.09,1.25-.09h14.71c.11,0,1.42,1.29,1.48,1.62.19.63-1.32,2.06-1.48,2.06h-19.61l-.92-.92v-27.89h20.84Z"/>
        <path class="cls-2" d="M354.97,392.45c-.37-.22-.41-1.99-1.61-1.74-4.75,3.79-16.72,2.39-14.15-5.52,2.15-6.64,13.53-3.93,14.39-6.48,1.34-3.97-4.56-5.26-7.49-4.39-2.21.65-2.7,5.14-5.37,3.27-2.85-1.98,3.02-6.08,5.28-6.43,14.07-2.18,11.02,7.22,11.27,16.84.03,1.13.79,2.9.6,3.58-.29,1.03-2.12,1.36-2.92.87ZM353.65,382.77c-4.12.44-12.31-.17-10.12,6.14,4.94,3.31,10.91-.07,10.12-6.14Z"/>
        <path class="cls-2" d="M315.03,382.77h-13.79c-.12,0-1.27,1.11-1.32,1.52.55,4.3,5.15,7.22,9.16,5.09,1.78-.94,1.96-3.37,3.83-3.57,4.5-.48.87,6.14-4.3,6.78-8.74,1.08-13.53-3.78-12.51-12.51,1.59-13.58,21.58-11.12,18.93,2.69ZM311.35,380.31c.67-4.92-3.56-7.34-8.01-5.86-2.42.81-3.97,5.86-2.11,5.86h10.11Z"/>
        <path class="cls-2" d="M379.83,371.26c10-2.06,15.32,7.15,12.12,15.8-1.91,5.17-6.63,6.15-11.67,5.53-10.01-1.23-9.52-19.46-.46-21.33ZM381.05,374.31c-7.01,1.58-5.9,16.61,2.26,15.8,8.22-.81,7.88-18.09-2.26-15.8Z"/>
        <path class="cls-2" d="M422.12,388.74c.51-.56.88-1.74.7-2.48-3.17-4.45-12.03-1.76-13.28-8.25-1.36-7.07,10.68-9.17,14.6-4.76.93,1.05,2.03,3.37.23,3.95-2.44.78-2.43-1.53-3.68-2.34-2.02-1.31-7.98-1.16-7.64,2.07.41,4,14.87,2.01,13.52,10.39-1.09,6.72-13.82,6.99-16.47,2.43-.86-1.48-1.32-3.73.85-3.95,2.37-.24,1.74,1.68,2.77,2.78,1.77,1.88,6.65,2.06,8.39.16Z"/>
        <path class="cls-2" d="M333.58,371.9c2.33-2.28,3.13.18,2.48,2.78-.56,2.29-6.26,16.96-7.55,17.6-.67.33-1.3.45-2.03.21-1.36-.39-4.29-8.96-5.03-10.95-.49-1.3-1.2-2.81-1.46-3.55-.69-1.94-1.23-4.26-1.9-6.25,1.43-.31,2.6-1.19,3.72.26l5.78,15.05c1.16,0,4.35-13.53,5.98-15.14Z"/>
        <path class="cls-2" d="M367.13,364.99l.05,6.09c4.32.19,5.28,3.54-.05,3.11.51,2.96-1.05,13.13.88,14.75,1.33,1.11,3.48.33,2.8,3.64-11.17,2.07-6.13-10.61-7.35-16.86-.36-1.87-5.64-3.25-.09-4.67.09-2.96-.3-6.61,3.76-6.05Z"/>
        <path class="cls-2" d="M291.74,363.76v27.89l-.6.62c-2.5.91-2.92-1.06-3.11-3.04-.74-7.53.62-16.27.04-23.94.19-1.99,2.15-1.55,3.68-1.53Z"/>
        <path class="cls-2" d="M396.55,372.65c.26-.85,1.85-1.12,2.7-.94l1.28,1.27c1.39-1.78,7.16-3.09,7.63-.26.42,2.57-4.52,1.7-5.84,2.63-.48.34-2.09,3.64-2.09,4.03v12.26l-1.53.94c-.63.04-2.14-1.28-2.14-1.55,0-3.6-.72-16.04,0-18.39Z"/>
      </g>
    </g>
  </g>
  <g id="shap">
    <path class="cls-1" d="M352.87,139.56c0,77.07-62.48,139.56-139.54,139.56s-139.54-62.48-139.54-139.56S136.26,0,213.33,0s139.54,62.48,139.54,139.56ZM336.63,139.55c0-68.11-55.21-123.32-123.31-123.32s-123.31,55.21-123.31,123.32,55.21,123.32,123.31,123.32,123.31-55.21,123.31-123.32Z"/>
  </g>
  <g id="arow_2" data-name="arow 2">
    <path class="cls-1" d="M173.14,93.18c2.64-.55,4.85-.16,6.98,1.41,5.26,3.87,16.84,25.4,20.97,32.3,9.51,15.91,18.45,32.17,28.08,48.01,2.72,6.66-.52,11.79-7.91,10.45-15.21-7.2-29.47-16.49-44.06-24.93l-1.63-.42-46.4,25.66c-5.47,1.62-10.15-3.7-9.03-9.03,14.7-23.59,27.46-49.23,42.79-72.36,2.12-3.2,6.35-10.28,10.22-11.09Z"/>
  </g>
  <g id="arow">
    <path class="cls-1" d="M302.94,110.62c-7.83,13.95-16.48,28.12-24.74,41.96-3.68,6.16-16.49,29.32-21.05,32.22-7.03,4.48-11.48-1.33-15.09-6.56-16.25-23.49-29.22-50.94-44.59-75.12-1.69-4.91,2.98-10.96,8.18-9.72l47.02,26.36,42.52-24.76c3.2-1.31,6.75-2.32,9.74.08,5.21,4.17.41,11.27-1.99,15.54Z"/>
  </g>
</svg>