<svg width="271" height="224" viewBox="0 0 271 224" fill="none" xmlns="http://www.w3.org/2000/svg">
    <path d="M18.525 210.475C19.125 211 19.875 211.25 20.775 211.25C21.675 211.25 22.425 211 23.025 210.475C23.625 209.95 23.925 209.325 23.925 208.55V197.175C23.925 195.3 23.675 193.625 23.2 192.1C22.7 190.575 21.8 189.35 20.5 188.45C19.2 187.525 17.275 187.075 14.75 187.075C13.6 187.075 12.525 187.225 11.55 187.55C10.575 187.85 9.675 188.275 8.875 188.775C8.075 189.275 7.4 189.825 6.825 190.4C6.625 190.6 6.475 190.8 6.3 190.975V179.8C6.3 179.025 5.99999 178.375 5.39999 177.875C4.79999 177.35 4.04999 177.1 3.14999 177.1C2.24999 177.1 1.49999 177.35 0.899994 177.875C0.299994 178.4 0 179.025 0 179.8V208.6C0 209.375 0.299994 210.025 0.899994 210.525C1.49999 211.05 2.24999 211.3 3.14999 211.3C4.04999 211.3 4.79999 211.05 5.39999 210.525C5.99999 210 6.3 209.375 6.3 208.6V197.225C6.3 196.25 6.525 195.375 7 194.575C7.475 193.8 8.175 193.15 9.125 192.7C10.075 192.225 11.2 192 12.525 192C13.9 192 14.95 192.225 15.675 192.7C16.4 193.175 16.925 193.8 17.2 194.575C17.475 195.35 17.625 196.25 17.625 197.225V208.6C17.625 209.3 17.925 209.95 18.525 210.475Z" fill="#0D1A1C"/>
    <path d="M50.925 210.125C53.075 209.1 54.8 207.65 56.075 205.8C57.35 203.95 58 201.8 58 199.375C58 196.95 57.35 194.8 56.075 192.95C54.8 191.1 53.075 189.65 50.925 188.6C48.775 187.55 46.375 187.025 43.7 187.025C41.05 187.025 38.65 187.55 36.5 188.6C34.35 189.65 32.625 191.1 31.35 192.95C30.075 194.8 29.425 196.95 29.425 199.375C29.425 201.8 30.075 203.95 31.35 205.8C32.625 207.65 34.35 209.1 36.5 210.125C38.65 211.15 41.05 211.675 43.7 211.675C46.35 211.675 48.775 211.175 50.925 210.125ZM36.8 203.275C36.075 202.175 35.725 200.875 35.725 199.4C35.725 197.9 36.075 196.575 36.8 195.475C37.525 194.375 38.475 193.5 39.675 192.875C40.875 192.25 42.225 191.95 43.7 191.95C45.175 191.95 46.5 192.25 47.725 192.875C48.925 193.5 49.9 194.35 50.6 195.475C51.325 196.575 51.675 197.9 51.675 199.4C51.675 200.875 51.325 202.175 50.6 203.275C49.875 204.375 48.925 205.25 47.725 205.875C46.525 206.5 45.175 206.8 43.7 206.8C42.225 206.8 40.9 206.5 39.675 205.875C38.475 205.25 37.525 204.375 36.8 203.275Z" fill="#0D1A1C"/>
    <path d="M74.275 211.1C75.5 211.475 76.8 211.675 78.2 211.675C80.575 211.675 82.725 211.15 84.625 210.1C86.525 209.05 88.05 207.6 89.2 205.75C90.325 203.9 90.9 201.75 90.9 199.325C90.9 196.9 90.325 194.775 89.2 192.925C88.075 191.1 86.525 189.65 84.575 188.6C82.625 187.55 80.45 187.025 78 187.025C76.775 187.025 75.625 187.2 74.5 187.55C73.4 187.9 72.425 188.35 71.6 188.9C70.85 189.4 70.225 189.9 69.775 190.375V179.7C69.775 178.925 69.475 178.275 68.875 177.775C68.275 177.25 67.525 177 66.625 177C65.725 177 64.975 177.25 64.375 177.775C63.775 178.3 63.475 178.925 63.475 179.7V208.925C63.475 209.725 63.775 210.375 64.375 210.875C64.975 211.375 65.725 211.625 66.625 211.625C67.525 211.625 68.275 211.375 68.875 210.85C69.475 210.325 69.775 209.7 69.775 208.925V208.7C70.15 209.025 70.575 209.325 71.05 209.65C71.975 210.25 73.05 210.725 74.275 211.1ZM69.5 199.35C69.5 197.925 69.825 196.675 70.475 195.55C71.125 194.45 72.025 193.55 73.175 192.9C74.325 192.25 75.675 191.925 77.225 191.925C78.775 191.925 80.1 192.25 81.25 192.9C82.375 193.55 83.275 194.425 83.925 195.55C84.575 196.65 84.9 197.925 84.9 199.35C84.9 200.75 84.575 202 83.925 203.15C83.275 204.3 82.375 205.175 81.25 205.825C80.125 206.475 78.775 206.8 77.225 206.8C75.675 206.8 74.35 206.475 73.175 205.825C72.025 205.175 71.125 204.275 70.475 203.15C69.825 202 69.5 200.725 69.5 199.35Z" fill="#0D1A1C"/>
    <path d="M117.525 188.625C115.575 187.575 113.4 187.05 110.95 187.05C109.725 187.05 108.575 187.225 107.45 187.575C106.35 187.925 105.375 188.375 104.55 188.925C103.8 189.425 103.175 189.9 102.725 190.4V179.725C102.725 178.95 102.425 178.3 101.825 177.8C101.225 177.275 100.475 177.025 99.575 177.025C98.675 177.025 97.925 177.275 97.325 177.8C96.725 178.325 96.425 178.95 96.425 179.725V208.95C96.425 209.75 96.725 210.4 97.325 210.9C97.925 211.4 98.675 211.65 99.575 211.65C100.475 211.65 101.225 211.4 101.825 210.875C102.425 210.35 102.725 209.725 102.725 208.95V208.7C103.1 209.025 103.525 209.325 104 209.65C104.925 210.25 106 210.725 107.225 211.125C108.45 211.5 109.75 211.7 111.15 211.7C113.525 211.7 115.675 211.175 117.575 210.125C119.475 209.075 121 207.625 122.15 205.775C123.275 203.925 123.85 201.775 123.85 199.35C123.85 196.925 123.275 194.8 122.15 192.95C121 191.125 119.475 189.675 117.525 188.625ZM116.85 203.15C116.2 204.3 115.3 205.175 114.175 205.825C113.05 206.475 111.7 206.8 110.15 206.8C108.6 206.8 107.275 206.475 106.1 205.825C104.95 205.175 104.05 204.275 103.4 203.15C102.75 202 102.425 200.75 102.425 199.35C102.425 197.925 102.75 196.675 103.4 195.55C104.05 194.45 104.95 193.55 106.1 192.9C107.25 192.25 108.6 191.925 110.15 191.925C111.7 191.925 113.025 192.25 114.175 192.9C115.3 193.55 116.2 194.425 116.85 195.55C117.5 196.65 117.825 197.925 117.825 199.35C117.825 200.725 117.5 202 116.85 203.15Z" fill="#0D1A1C"/>
    <path d="M150.175 185.95C149.275 185.95 148.525 186.225 147.925 186.775C147.325 187.325 147.025 188 147.025 188.825V200.9C147.025 202.1 146.8 203.1 146.35 203.95C145.9 204.775 145.25 205.425 144.4 205.85C143.55 206.275 142.525 206.475 141.3 206.475C139.525 206.475 138.125 206.05 137.125 205.225C136.125 204.4 135.625 202.95 135.625 200.9V188.825C135.625 188 135.325 187.325 134.725 186.775C134.125 186.225 133.375 185.95 132.475 185.95C131.575 185.95 130.825 186.225 130.225 186.775C129.625 187.325 129.325 188 129.325 188.825V202.6C129.325 204.375 129.7 205.925 130.475 207.3C131.25 208.675 132.325 209.75 133.7 210.5C135.075 211.275 136.7 211.65 138.55 211.65C140.125 211.65 141.525 211.475 142.75 211.125C143.975 210.775 145.025 210.275 145.925 209.6C146.325 209.3 146.7 208.95 147.05 208.55C147 208.6 147.15 209.175 147.15 209.275C147.175 209.575 147.2 209.875 147.225 210.175C147.25 210.85 147.225 211.55 147.15 212.225C146.875 214.75 146.05 216.65 143.5 217.425C142.05 217.875 140.5 218.025 138.975 217.9C137.375 217.775 136 217.15 134.475 216.725C133.7 216.475 132.975 216.5 132.275 216.85C131.575 217.175 131.075 217.8 130.75 218.725C130.5 219.425 130.575 220.075 130.975 220.675C131.375 221.3 132.1 221.8 133.15 222.2C137.15 223.75 142.45 223.525 146.45 222.05C152.2 219.925 153.3 214.4 153.3 208.85V188.775C153.3 187.95 153 187.275 152.4 186.725C151.85 186.225 151.1 185.95 150.175 185.95Z" fill="#0D1A1C"/>
    <path d="M195.325 188.425C194.025 187.5 192.1 187.05 189.575 187.05C188.425 187.05 187.35 187.2 186.375 187.525C185.4 187.825 184.5 188.25 183.7 188.75C182.9 189.25 182.225 189.8 181.65 190.375C181.45 190.575 181.3 190.775 181.125 190.95V179.775C181.125 179 180.825 178.35 180.225 177.85C179.625 177.325 178.875 177.075 177.975 177.075C177.075 177.075 176.325 177.325 175.725 177.85C175.125 178.375 174.825 179 174.825 179.775V208.575C174.825 209.35 175.125 210 175.725 210.5C176.325 211.025 177.075 211.275 177.975 211.275C178.875 211.275 179.625 211.025 180.225 210.5C180.825 209.975 181.125 209.35 181.125 208.575V197.2C181.125 196.225 181.35 195.35 181.825 194.55C182.3 193.775 183 193.125 183.95 192.675C184.9 192.2 186.025 191.975 187.35 191.975C188.725 191.975 189.775 192.2 190.5 192.675C191.225 193.15 191.75 193.775 192.025 194.55C192.3 195.325 192.45 196.225 192.45 197.2V208.575C192.45 209.35 192.75 210 193.35 210.5C193.95 211.025 194.7 211.275 195.6 211.275C196.5 211.275 197.25 211.025 197.85 210.5C198.45 209.975 198.75 209.35 198.75 208.575V197.2C198.75 195.325 198.5 193.65 198.025 192.125C197.525 190.55 196.625 189.35 195.325 188.425Z" fill="#0D1A1C"/>
    <path d="M217.525 211.675C221.4 211.675 224.375 210.75 226.45 208.925C228.525 207.1 229.55 204.6 229.55 201.475V190.2C229.55 189.425 229.25 188.775 228.65 188.275C228.05 187.75 227.3 187.5 226.4 187.5C225.5 187.5 224.75 187.75 224.15 188.275C223.55 188.8 223.25 189.425 223.25 190.2V201.475C223.25 203.275 222.775 204.625 221.825 205.5C220.875 206.375 219.45 206.8 217.525 206.8C215.625 206.8 214.225 206.375 213.275 205.5C212.325 204.625 211.85 203.3 211.85 201.475V190.2C211.85 189.425 211.55 188.775 210.95 188.275C210.35 187.75 209.6 187.5 208.7 187.5C207.8 187.5 207.05 187.75 206.45 188.275C205.85 188.8 205.55 189.425 205.55 190.2V201.475C205.55 204.625 206.575 207.1 208.625 208.925C210.7 210.775 213.65 211.675 217.525 211.675Z" fill="#0D1A1C"/>
    <path d="M257.475 188.625C255.525 187.575 253.35 187.05 250.9 187.05C249.675 187.05 248.525 187.225 247.4 187.575C246.3 187.925 245.325 188.375 244.5 188.925C243.75 189.425 243.125 189.925 242.675 190.4V179.725C242.675 178.95 242.375 178.3 241.775 177.8C241.175 177.275 240.425 177.025 239.525 177.025C238.625 177.025 237.875 177.275 237.275 177.8C236.675 178.325 236.375 178.95 236.375 179.725V208.95C236.375 209.75 236.675 210.4 237.275 210.9C237.875 211.4 238.625 211.65 239.525 211.65C240.425 211.65 241.175 211.4 241.775 210.875C242.375 210.35 242.675 209.725 242.675 208.95V208.7C243.05 209.025 243.475 209.325 243.95 209.65C244.875 210.25 245.95 210.725 247.175 211.125C248.4 211.5 249.7 211.7 251.1 211.7C253.475 211.7 255.625 211.175 257.525 210.125C259.425 209.075 260.95 207.625 262.1 205.775C263.225 203.925 263.8 201.775 263.8 199.35C263.8 196.925 263.225 194.8 262.1 192.95C260.95 191.125 259.425 189.675 257.475 188.625ZM256.8 203.15C256.15 204.3 255.25 205.175 254.125 205.825C253 206.475 251.65 206.8 250.1 206.8C248.55 206.8 247.225 206.475 246.05 205.825C244.9 205.175 244 204.275 243.35 203.15C242.7 202 242.375 200.75 242.375 199.35C242.375 197.925 242.7 196.675 243.35 195.55C244 194.45 244.9 193.55 246.05 192.9C247.2 192.25 248.55 191.925 250.1 191.925C251.65 191.925 252.975 192.25 254.125 192.9C255.25 193.55 256.15 194.425 256.8 195.55C257.45 196.65 257.775 197.925 257.775 199.35C257.775 200.725 257.45 202 256.8 203.15Z" fill="#0D1A1C"/>
    <path d="M7.67499 221.15H9.34999V218.725H12.65V217.5H9.34999V215.725H13.1V214.5H7.67499V221.15Z" fill="#F67234"/>
    <path d="M16.025 214.5H14.375V221.15H16.025V214.5Z" fill="#F67234"/>
    <path d="M22.8 218.55L19.225 214.5H17.85V221.15H19.5V217.125L23.075 221.15H24.425V214.5H22.8V218.55Z" fill="#F67234"/>
    <path d="M31.575 214.925C30.975 214.65 30.3 214.5 29.525 214.5H26.275V221.15H29.525C30.3 221.15 31 221 31.575 220.725C32.175 220.45 32.625 220.05 32.975 219.575C33.3 219.075 33.475 218.5 33.475 217.825C33.475 217.15 33.3 216.55 32.975 216.075C32.65 215.575 32.175 215.2 31.575 214.925ZM31.5 218.925C31.3 219.225 31.025 219.475 30.675 219.65C30.325 219.825 29.9 219.9 29.425 219.9H27.9V215.775H29.425C29.9 215.775 30.325 215.85 30.675 216.025C31.025 216.2 31.3 216.425 31.5 216.75C31.7 217.05 31.8 217.425 31.8 217.85C31.8 218.25 31.7 218.625 31.5 218.925Z" fill="#F67234"/>
    <path d="M42.5 214.5L40.575 217.45L38.675 214.5H36.9L39.675 218.775V221.15H41.35V218.8L44.125 214.5H42.5Z" fill="#F67234"/>
    <path d="M50.925 215.375C50.575 215.075 50.15 214.825 49.675 214.65C49.2 214.475 48.675 214.4 48.125 214.4C47.575 214.4 47.05 214.475 46.575 214.65C46.1 214.825 45.675 215.05 45.325 215.375C44.975 215.675 44.7 216.05 44.5 216.475C44.3 216.9 44.2 217.35 44.2 217.85C44.2 218.35 44.3 218.8 44.5 219.225C44.7 219.65 44.975 220 45.325 220.325C45.675 220.625 46.1 220.875 46.575 221.05C47.05 221.225 47.575 221.3 48.15 221.3C48.7 221.3 49.225 221.225 49.7 221.05C50.175 220.875 50.575 220.65 50.95 220.325C51.3 220.025 51.575 219.65 51.775 219.225C51.975 218.8 52.075 218.35 52.075 217.85C52.075 217.35 51.975 216.9 51.775 216.475C51.55 216.05 51.275 215.675 50.925 215.375ZM50.2 218.7C50.075 218.95 49.925 219.175 49.725 219.375C49.525 219.575 49.275 219.7 49.025 219.825C48.75 219.925 48.45 219.975 48.15 219.975C47.825 219.975 47.525 219.925 47.25 219.825C46.975 219.725 46.75 219.575 46.55 219.375C46.35 219.175 46.2 218.95 46.075 218.7C45.975 218.425 45.9 218.15 45.9 217.85C45.9 217.525 45.95 217.25 46.075 216.975C46.2 216.725 46.35 216.5 46.55 216.3C46.75 216.1 47 215.975 47.25 215.85C47.525 215.75 47.825 215.7 48.125 215.7C48.45 215.7 48.75 215.75 49.025 215.85C49.3 215.95 49.525 216.1 49.725 216.3C49.925 216.5 50.075 216.725 50.2 216.975C50.3 217.225 50.375 217.525 50.375 217.85C50.375 218.15 50.3 218.425 50.2 218.7Z" fill="#F67234"/>
    <path d="M58.225 218.175C58.225 218.8 58.075 219.275 57.8 219.55C57.525 219.825 57.125 219.975 56.625 219.975C56.125 219.975 55.725 219.825 55.45 219.55C55.175 219.275 55.025 218.825 55.025 218.175V214.5H53.375V218.225C53.375 219.2 53.65 219.95 54.225 220.475C54.8 221 55.6 221.275 56.6 221.275C57.625 221.275 58.4 221 58.975 220.475C59.55 219.95 59.825 219.2 59.825 218.225V214.5H58.2V218.175H58.225Z" fill="#F67234"/>
    <path d="M66.4 219.025C66.875 218.825 67.225 218.55 67.475 218.2C67.725 217.85 67.85 217.425 67.85 216.925C67.85 216.425 67.725 216 67.475 215.625C67.225 215.275 66.875 214.975 66.4 214.8C65.925 214.6 65.375 214.5 64.75 214.5H61.65V221.15H63.3V219.3H64.75C64.775 219.3 64.8 219.3 64.825 219.3L66.2 221.15H68L66.4 219.025ZM65.8 216.05C66.05 216.25 66.175 216.55 66.175 216.9C66.175 217.25 66.05 217.55 65.8 217.75C65.55 217.95 65.175 218.05 64.65 218.05H63.3V215.725H64.65C65.15 215.75 65.55 215.85 65.8 216.05Z" fill="#F67234"/>
    <path d="M77.1 214.8C76.625 214.6 76.075 214.5 75.45 214.5H72.35V221.15H74V219.325H75.45C76.1 219.325 76.65 219.225 77.1 219.025C77.575 218.825 77.925 218.55 78.175 218.2C78.425 217.85 78.55 217.4 78.55 216.925C78.55 216.425 78.425 216 78.175 215.625C77.925 215.25 77.55 214.975 77.1 214.8ZM76.5 217.775C76.25 217.975 75.875 218.075 75.35 218.075H74V215.75H75.35C75.85 215.75 76.25 215.85 76.5 216.05C76.75 216.25 76.875 216.55 76.875 216.9C76.875 217.275 76.75 217.55 76.5 217.775Z" fill="#F67234"/>
    <path d="M81.775 214.5L78.575 221.15H80.275L80.925 219.725H84.25L84.875 221.15H86.625L83.425 214.5H81.775ZM81.425 218.575L82.575 216.025L83.7 218.575H81.425Z" fill="#F67234"/>
    <path d="M92.05 217.8C91.8 217.65 91.525 217.55 91.225 217.475C90.925 217.4 90.625 217.325 90.325 217.25C90.025 217.175 89.75 217.125 89.5 217.05C89.25 216.975 89.05 216.9 88.9 216.8C88.75 216.7 88.675 216.55 88.675 216.375C88.675 216.225 88.725 216.1 88.8 216C88.9 215.9 89.025 215.8 89.25 215.725C89.45 215.65 89.725 215.625 90.05 215.625C90.375 215.625 90.7 215.675 91.025 215.75C91.35 215.825 91.7 215.975 92.025 216.15L92.525 214.975C92.2 214.775 91.8 214.625 91.375 214.525C90.95 214.425 90.5 214.375 90.05 214.375C89.375 214.375 88.825 214.475 88.375 214.65C87.925 214.825 87.6 215.1 87.375 215.4C87.15 215.725 87.05 216.05 87.05 216.45C87.05 216.8 87.125 217.1 87.275 217.325C87.425 217.55 87.625 217.725 87.875 217.875C88.125 218.025 88.4 218.125 88.7 218.225C89 218.325 89.3 218.4 89.6 218.45C89.9 218.5 90.175 218.575 90.425 218.65C90.675 218.725 90.875 218.8 91.025 218.9C91.175 219 91.25 219.15 91.25 219.325C91.25 219.475 91.2 219.6 91.1 219.7C91 219.8 90.85 219.9 90.65 219.95C90.45 220 90.175 220.05 89.85 220.05C89.425 220.05 89 219.975 88.575 219.85C88.15 219.725 87.8 219.55 87.475 219.35L86.9 220.5C87.225 220.725 87.65 220.925 88.175 221.05C88.7 221.2 89.25 221.275 89.825 221.275C90.5 221.275 91.075 221.175 91.525 221C91.975 220.8 92.3 220.55 92.525 220.25C92.75 219.95 92.875 219.6 92.875 219.225C92.875 218.875 92.8 218.575 92.65 218.35C92.5 218.125 92.3 217.925 92.05 217.8Z" fill="#F67234"/>
    <path d="M98.725 217.8C98.475 217.65 98.2 217.55 97.9 217.475C97.6 217.4 97.3 217.325 97 217.25C96.7 217.175 96.425 217.125 96.175 217.05C95.925 216.975 95.725 216.9 95.575 216.8C95.425 216.7 95.35 216.55 95.35 216.375C95.35 216.225 95.4 216.1 95.475 216C95.575 215.9 95.7 215.8 95.925 215.725C96.125 215.65 96.4 215.625 96.725 215.625C97.05 215.625 97.375 215.675 97.7 215.75C98.025 215.825 98.375 215.975 98.7 216.15L99.2 214.975C98.875 214.775 98.475 214.625 98.05 214.525C97.625 214.425 97.175 214.375 96.725 214.375C96.05 214.375 95.5 214.475 95.05 214.65C94.6 214.825 94.275 215.1 94.05 215.4C93.825 215.725 93.725 216.05 93.725 216.45C93.725 216.8 93.8 217.1 93.95 217.325C94.1 217.55 94.3 217.725 94.55 217.875C94.8 218.025 95.075 218.125 95.375 218.225C95.675 218.325 95.975 218.4 96.275 218.45C96.575 218.5 96.85 218.575 97.1 218.65C97.35 218.725 97.55 218.8 97.7 218.9C97.85 219 97.925 219.15 97.925 219.325C97.925 219.475 97.875 219.6 97.775 219.7C97.675 219.8 97.525 219.9 97.325 219.95C97.125 220 96.85 220.05 96.525 220.05C96.1 220.05 95.675 219.975 95.25 219.85C94.825 219.725 94.475 219.55 94.15 219.35L93.575 220.5C93.9 220.725 94.325 220.925 94.85 221.05C95.375 221.2 95.925 221.275 96.5 221.275C97.175 221.275 97.75 221.175 98.2 221C98.65 220.825 98.975 220.55 99.2 220.25C99.425 219.95 99.55 219.6 99.55 219.225C99.55 218.875 99.475 218.575 99.325 218.35C99.175 218.125 98.975 217.925 98.725 217.8Z" fill="#F67234"/>
    <path d="M102.475 214.5H100.825V221.15H102.475V214.5Z" fill="#F67234"/>
    <path d="M110.6 215.375C110.25 215.075 109.825 214.825 109.35 214.65C108.875 214.475 108.35 214.4 107.8 214.4C107.25 214.4 106.725 214.475 106.25 214.65C105.775 214.825 105.35 215.05 105 215.375C104.65 215.675 104.375 216.05 104.175 216.475C103.975 216.9 103.875 217.35 103.875 217.85C103.875 218.35 103.975 218.8 104.175 219.225C104.375 219.65 104.65 220 105 220.325C105.35 220.625 105.775 220.875 106.25 221.05C106.725 221.225 107.25 221.3 107.825 221.3C108.375 221.3 108.9 221.225 109.375 221.05C109.85 220.875 110.25 220.65 110.625 220.325C110.975 220.025 111.25 219.65 111.45 219.225C111.65 218.8 111.75 218.35 111.75 217.85C111.75 217.35 111.65 216.9 111.45 216.475C111.25 216.05 110.95 215.675 110.6 215.375ZM109.875 218.7C109.75 218.95 109.6 219.175 109.4 219.375C109.2 219.575 108.95 219.7 108.7 219.825C108.425 219.925 108.125 219.975 107.825 219.975C107.525 219.975 107.2 219.925 106.925 219.825C106.65 219.725 106.425 219.575 106.225 219.375C106.025 219.175 105.875 218.95 105.75 218.7C105.65 218.425 105.575 218.15 105.575 217.85C105.575 217.525 105.625 217.25 105.75 216.975C105.875 216.725 106.025 216.5 106.225 216.3C106.425 216.1 106.675 215.975 106.925 215.85C107.2 215.75 107.5 215.7 107.8 215.7C108.1 215.7 108.425 215.75 108.7 215.85C108.975 215.95 109.2 216.1 109.4 216.3C109.6 216.5 109.75 216.725 109.875 216.975C109.975 217.225 110.05 217.525 110.05 217.85C110.05 218.15 109.975 218.425 109.875 218.7Z" fill="#F67234"/>
    <path d="M118.05 218.55L114.475 214.5H113.1V221.15H114.75V217.125L118.325 221.15H119.675V214.5H118.05V218.55Z" fill="#F67234"/>
    <path d="M165.575 217.8C165.325 217.65 165.05 217.55 164.75 217.475C164.45 217.4 164.15 217.325 163.85 217.25C163.55 217.175 163.275 217.125 163.025 217.05C162.775 216.975 162.575 216.9 162.425 216.8C162.275 216.7 162.2 216.55 162.2 216.375C162.2 216.225 162.25 216.1 162.325 216C162.425 215.9 162.55 215.8 162.775 215.725C162.975 215.65 163.25 215.625 163.575 215.625C163.9 215.625 164.225 215.675 164.55 215.75C164.875 215.825 165.225 215.975 165.55 216.15L166.05 214.975C165.725 214.775 165.325 214.625 164.9 214.525C164.475 214.425 164.025 214.375 163.575 214.375C162.9 214.375 162.35 214.475 161.9 214.65C161.45 214.825 161.125 215.1 160.9 215.4C160.675 215.725 160.575 216.05 160.575 216.45C160.575 216.8 160.65 217.1 160.8 217.325C160.95 217.55 161.15 217.725 161.4 217.875C161.65 218.025 161.925 218.125 162.225 218.225C162.525 218.325 162.825 218.4 163.125 218.45C163.425 218.5 163.7 218.575 163.95 218.65C164.2 218.725 164.4 218.8 164.55 218.9C164.7 219 164.775 219.15 164.775 219.325C164.775 219.475 164.725 219.6 164.625 219.7C164.525 219.8 164.375 219.9 164.175 219.95C163.975 220 163.7 220.05 163.375 220.05C162.95 220.05 162.525 219.975 162.1 219.85C161.675 219.725 161.325 219.55 161 219.35L160.425 220.5C160.75 220.725 161.175 220.925 161.7 221.05C162.225 221.2 162.775 221.275 163.35 221.275C164.025 221.275 164.6 221.175 165.05 221C165.5 220.8 165.825 220.55 166.05 220.25C166.275 219.95 166.4 219.6 166.4 219.225C166.4 218.875 166.325 218.575 166.175 218.35C166.025 218.125 165.825 217.925 165.575 217.8Z" fill="#F67234"/>
    <path d="M172.6 217.125H169.35V214.5H167.7V221.15H169.35V218.425H172.6V221.15H174.25V214.5H172.6V217.125Z" fill="#F67234"/>
    <path d="M178.35 214.5L175.15 221.15H176.85L177.5 219.725H180.825L181.45 221.15H183.2L180 214.5H178.35ZM178.025 218.575L179.175 216.025L180.3 218.575H178.025Z" fill="#F67234"/>
    <path d="M188.825 219.025C189.3 218.825 189.65 218.55 189.9 218.2C190.15 217.85 190.275 217.425 190.275 216.925C190.275 216.425 190.15 216 189.9 215.625C189.65 215.275 189.3 214.975 188.825 214.8C188.35 214.6 187.8 214.5 187.175 214.5H184.075V221.15H185.725V219.3H187.175C187.2 219.3 187.225 219.3 187.25 219.3L188.625 221.15H190.425L188.825 219.025ZM188.225 216.05C188.475 216.25 188.6 216.55 188.6 216.9C188.6 217.25 188.475 217.55 188.225 217.75C187.975 217.95 187.6 218.05 187.075 218.05H185.725V215.725H187.075C187.6 215.75 187.975 215.85 188.225 216.05Z" fill="#F67234"/>
    <path d="M193.4 218.375H196.725V217.175H193.4V215.725H197.15V214.5H191.75V221.15H197.3V219.925H193.4V218.375Z" fill="#F67234"/>
    <path d="M206.375 214.5L204.475 217.45L202.55 214.5H200.8L203.575 218.775V221.15H205.225V218.8L208 214.5H206.375Z" fill="#F67234"/>
    <path d="M214.8 215.375C214.45 215.075 214.025 214.825 213.55 214.65C213.075 214.475 212.55 214.4 212 214.4C211.45 214.4 210.925 214.475 210.45 214.65C209.975 214.825 209.55 215.05 209.2 215.375C208.85 215.675 208.575 216.05 208.375 216.475C208.175 216.9 208.075 217.35 208.075 217.85C208.075 218.35 208.175 218.8 208.375 219.225C208.575 219.65 208.85 220 209.2 220.325C209.55 220.625 209.975 220.875 210.45 221.05C210.925 221.225 211.45 221.3 212.025 221.3C212.575 221.3 213.1 221.225 213.575 221.05C214.05 220.875 214.45 220.65 214.825 220.325C215.175 220.025 215.45 219.65 215.65 219.225C215.85 218.8 215.95 218.35 215.95 217.85C215.95 217.35 215.85 216.9 215.65 216.475C215.45 216.05 215.15 215.675 214.8 215.375ZM214.075 218.7C213.95 218.95 213.8 219.175 213.6 219.375C213.4 219.575 213.15 219.7 212.9 219.825C212.625 219.925 212.325 219.975 212.025 219.975C211.7 219.975 211.4 219.925 211.125 219.825C210.85 219.725 210.625 219.575 210.425 219.375C210.225 219.175 210.075 218.95 209.95 218.7C209.85 218.425 209.775 218.15 209.775 217.85C209.775 217.525 209.825 217.25 209.95 216.975C210.075 216.725 210.225 216.5 210.425 216.3C210.625 216.1 210.875 215.975 211.125 215.85C211.4 215.75 211.7 215.7 212 215.7C212.325 215.7 212.625 215.75 212.9 215.85C213.175 215.95 213.4 216.1 213.6 216.3C213.8 216.5 213.95 216.725 214.075 216.975C214.175 217.225 214.25 217.525 214.25 217.85C214.25 218.15 214.2 218.425 214.075 218.7Z" fill="#F67234"/>
    <path d="M222.1 218.175C222.1 218.8 221.95 219.275 221.675 219.55C221.4 219.825 221 219.975 220.5 219.975C220 219.975 219.6 219.825 219.325 219.55C219.05 219.275 218.9 218.825 218.9 218.175V214.5H217.25V218.225C217.25 219.2 217.525 219.95 218.1 220.475C218.675 221 219.475 221.275 220.475 221.275C221.5 221.275 222.275 221 222.85 220.475C223.425 219.95 223.7 219.2 223.7 218.225V214.5H222.075V218.175H222.1Z" fill="#F67234"/>
    <path d="M230.275 219.025C230.75 218.825 231.1 218.55 231.35 218.2C231.6 217.85 231.725 217.425 231.725 216.925C231.725 216.425 231.6 216 231.35 215.625C231.1 215.275 230.75 214.975 230.275 214.8C229.8 214.6 229.25 214.5 228.625 214.5H225.525V221.15H227.175V219.3H228.625C228.65 219.3 228.675 219.3 228.7 219.3L230.075 221.15H231.875L230.275 219.025ZM229.675 216.05C229.925 216.25 230.05 216.55 230.05 216.9C230.05 217.25 229.925 217.55 229.675 217.75C229.425 217.95 229.05 218.05 228.525 218.05H227.175V215.725H228.525C229.05 215.75 229.425 215.85 229.675 216.05Z" fill="#F67234"/>
    <path d="M235.95 215.725H238.475V218.9C238.475 219.625 238.125 220 237.45 220C237.2 220 236.95 219.95 236.75 219.825C236.525 219.7 236.325 219.525 236.125 219.275L235.2 220.3C235.45 220.6 235.8 220.85 236.2 221.025C236.6 221.2 237.05 221.275 237.525 221.275C238.375 221.275 239 221.075 239.45 220.675C239.875 220.275 240.1 219.65 240.1 218.825V214.5H235.95V215.725Z" fill="#F67234"/>
    <path d="M248.175 215.375C247.825 215.075 247.4 214.825 246.925 214.65C246.45 214.475 245.925 214.4 245.375 214.4C244.825 214.4 244.3 214.475 243.825 214.65C243.35 214.825 242.925 215.05 242.575 215.375C242.225 215.675 241.95 216.05 241.75 216.475C241.55 216.9 241.45 217.35 241.45 217.85C241.45 218.35 241.55 218.8 241.75 219.225C241.95 219.65 242.225 220 242.575 220.325C242.925 220.625 243.35 220.875 243.825 221.05C244.3 221.225 244.825 221.3 245.4 221.3C245.95 221.3 246.475 221.225 246.95 221.05C247.425 220.875 247.825 220.65 248.2 220.325C248.55 220.025 248.825 219.65 249.025 219.225C249.225 218.8 249.325 218.35 249.325 217.85C249.325 217.35 249.225 216.9 249.025 216.475C248.8 216.05 248.525 215.675 248.175 215.375ZM247.45 218.7C247.325 218.95 247.175 219.175 246.975 219.375C246.775 219.575 246.525 219.7 246.275 219.825C246 219.925 245.7 219.975 245.4 219.975C245.075 219.975 244.775 219.925 244.5 219.825C244.225 219.725 244 219.575 243.8 219.375C243.6 219.175 243.45 218.95 243.325 218.7C243.225 218.425 243.15 218.15 243.15 217.85C243.15 217.525 243.2 217.25 243.325 216.975C243.45 216.725 243.6 216.5 243.8 216.3C244 216.1 244.25 215.975 244.5 215.85C244.775 215.75 245.075 215.7 245.375 215.7C245.7 215.7 246 215.75 246.275 215.85C246.55 215.95 246.775 216.1 246.975 216.3C247.175 216.5 247.325 216.725 247.45 216.975C247.55 217.225 247.625 217.525 247.625 217.85C247.6 218.15 247.55 218.425 247.45 218.7Z" fill="#F67234"/>
    <path d="M254.975 214.5L253.05 217.45L251.15 214.5H249.375L252.15 218.775V221.15H253.8V218.8L256.6 214.5H254.975Z" fill="#F67234"/>
    <path d="M257.675 185.95H259.35V180.55H261.625V179.3H255.4V180.55H257.675V185.95Z" fill="#F67234"/>
    <path d="M270.75 185.95L270.725 179.3H269.35L266.725 183.425L264.05 179.3H262.675V185.95H264.225V182.05L266.325 185.25H267.075L269.175 181.95V185.95H270.75Z" fill="#F67234"/>
    <path d="M146.453 11.4152C146.453 13.5389 145.884 15.5489 144.822 17.2934C144.178 18.3553 143.381 19.2655 142.471 20.0619C140.461 21.8064 137.844 22.8683 134.962 22.8683C130.79 22.8683 127.15 20.6307 125.14 17.2934C124.116 15.5868 123.547 13.5768 123.547 11.4531C123.547 5.11976 128.667 0 134.962 0C137.844 0 140.461 1.02395 142.471 2.80639C144.898 4.85429 146.453 7.92615 146.453 11.4152Z" fill="#F67234"/>
    <path d="M123.509 140.509C123.509 138.385 124.078 136.375 125.14 134.631C125.784 133.569 126.581 132.659 127.491 131.862C129.501 130.118 132.118 129.056 135 129.056C139.172 129.056 142.812 131.293 144.822 134.631C145.846 136.337 146.415 138.347 146.415 140.471C146.415 146.804 141.295 151.924 135 151.924C132.118 151.924 129.501 150.9 127.491 149.118C125.064 147.07 123.509 143.998 123.509 140.509Z" fill="#62C7F1"/>
    <path d="M109.363 107.553H119.565C121.233 107.553 122.561 106.226 122.561 104.557V87.3773C122.561 84.7605 124.836 83.016 134.962 83.016C145.088 83.016 147.363 84.7605 147.363 87.3773V104.557C147.363 106.226 148.691 107.553 150.359 107.553H160.561C162.343 107.553 163.784 109.146 163.557 110.89C163.064 120.22 156.427 128.677 148.729 132.886C147.856 133.379 146.719 133.152 146.112 132.317C143.609 128.866 139.513 126.629 134.924 126.629C131.587 126.629 128.401 127.842 125.86 130.004C125.026 130.687 124.305 131.483 123.699 132.317C123.092 133.114 121.992 133.341 121.082 132.886C113.421 128.677 106.784 120.182 106.291 110.89C106.178 109.146 107.581 107.553 109.363 107.553Z" fill="#62C7F1"/>
    <path d="M160.561 44.3713H150.359C148.691 44.3713 147.363 45.6986 147.363 47.3673V64.5469C147.363 67.1637 145.088 68.9082 134.962 68.9082C124.836 68.9082 122.561 67.1637 122.561 64.5469V47.3673C122.561 45.6986 121.233 44.3713 119.565 44.3713H109.363C107.581 44.3713 106.14 42.7784 106.367 41.0339C106.86 31.7046 113.497 23.2475 121.196 19.0379C122.068 18.5449 123.206 18.7725 123.812 19.6068C126.315 23.0579 130.411 25.2954 135 25.2954C138.337 25.2954 141.523 24.0818 144.064 21.9202C144.898 21.2375 145.619 20.4411 146.226 19.6068C146.832 18.8104 147.932 18.5828 148.842 19.0379C156.503 23.2475 163.14 31.7425 163.633 41.0339C163.784 42.7784 162.381 44.3713 160.561 44.3713Z" fill="#F67234"/>
    <path d="M188.094 75.9621C188.094 69.6287 193.214 64.509 199.509 64.509C202.391 64.509 205.008 65.5329 207.018 67.3154C209.445 69.4391 211 72.511 211 75.9621C211 79.4132 209.483 82.523 207.018 84.6088C205.008 86.3533 202.391 87.4152 199.509 87.4152C193.214 87.4152 188.094 82.2954 188.094 75.9621Z" fill="#58BB47"/>
    <path d="M191.962 89.7665C187.752 97.4272 179.295 104.064 169.966 104.557C169.435 104.633 168.904 104.519 168.449 104.329C167.084 103.988 165.984 102.888 165.643 101.447C164.96 98.4511 164.467 93.6727 164.164 88.4012C163.936 84.3054 163.784 79.9062 163.784 75.9242C163.784 71.9421 163.898 67.5808 164.164 63.523C164.202 62.9162 164.24 62.3473 164.277 61.7405C164.581 57.1517 165.074 53.0559 165.681 50.4012C166.022 48.8463 167.311 47.7086 168.828 47.4431C169.208 47.3293 169.587 47.2914 170.004 47.3293C179.333 47.8224 187.79 54.4591 192 62.1577C192.493 63.0299 192.265 64.1677 191.431 64.7745C188.208 67.1258 186.046 70.8802 185.78 75.1278C185.78 75.2794 185.78 75.3932 185.78 75.5449C185.78 75.6966 185.78 75.8104 185.78 75.9621C185.78 76.1517 185.78 76.3792 185.78 76.5689C185.932 79.6786 187.108 82.6367 189.118 84.988C189.8 85.7844 190.597 86.5429 191.431 87.1497C192.19 87.7944 192.417 88.8942 191.962 89.7665Z" fill="#58BB47"/>
    <path d="M81.9062 75.9621C81.9062 82.2954 76.7864 87.4152 70.491 87.4152C67.6088 87.4152 64.992 86.3912 62.982 84.6088C60.5549 82.485 59 79.4132 59 75.9621C59 72.511 60.517 69.4012 62.982 67.3154C64.992 65.5709 67.6088 64.509 70.491 64.509C76.7864 64.509 81.9062 69.6287 81.9062 75.9621Z" fill="#7D4E9C"/>
    <path d="M78.0379 62.1577C82.2475 54.497 90.7046 47.8603 100.034 47.3673C100.565 47.2914 101.096 47.4052 101.551 47.5948C102.916 47.9361 104.016 49.0359 104.357 50.477C105.04 53.4731 105.533 58.2515 105.836 63.523C106.064 67.6188 106.216 72.018 106.216 76C106.216 79.982 106.102 84.3433 105.836 88.4012C105.798 89.008 105.76 89.5768 105.723 90.1836C105.419 94.7725 104.926 98.8683 104.319 101.523C103.978 103.078 102.689 104.216 101.172 104.481C100.792 104.595 100.413 104.633 99.996 104.595C90.6667 104.102 82.2096 97.4651 78 89.7665C77.507 88.8942 77.7345 87.7565 78.5689 87.1497C81.7924 84.7984 83.9541 81.0439 84.2196 76.7964C84.2196 76.6447 84.2196 76.5309 84.2196 76.3792C84.2196 76.2275 84.2196 76.1138 84.2196 75.9621C84.2196 75.7725 84.2196 75.5449 84.2196 75.3553C84.0679 72.2455 82.8922 69.2874 80.8822 66.9361C80.1996 66.1397 79.4032 65.3812 78.5689 64.7744C77.8104 64.1297 77.5828 63.0299 78.0379 62.1577Z" fill="#7D4E9C"/>
</svg>
