<svg width="16" height="16" viewBox="0 0 16 16" fill="none" xmlns="http://www.w3.org/2000/svg">
<path d="M5.83329 7.33333C7.58219 7.33333 8.99996 5.91557 8.99996 4.16667C8.99996 2.41777 7.58219 1 5.83329 1C4.08439 1 2.66663 2.41777 2.66663 4.16667C2.66663 5.91557 4.08439 7.33333 5.83329 7.33333Z" fill="#BD1E22"/>
<path d="M10.2266 8.32C9.86773 7.79758 9.40471 7.35498 8.86663 7.02C8.47758 7.43454 8.0077 7.76493 7.48598 7.99079C6.96427 8.21664 6.4018 8.33317 5.83329 8.33317C5.26479 8.33317 4.70232 8.21664 4.18061 7.99079C3.65889 7.76493 3.18901 7.43454 2.79996 7.02C2.14771 7.41988 1.60904 7.9805 1.23551 8.64819C0.861979 9.31588 0.6661 10.0683 0.666627 10.8333V12.1667C0.667501 12.299 0.72046 12.4257 0.814039 12.5193C0.907619 12.6128 1.03429 12.6658 1.16663 12.6667H7.69996C7.58464 11.7652 7.76967 10.8508 8.22642 10.065C8.68318 9.27925 9.38618 8.66594 10.2266 8.32Z" fill="#BD1E22"/>
<path d="M11.9999 8.83334C11.3736 8.83334 10.7614 9.01906 10.2406 9.36702C9.71986 9.71497 9.31398 10.2095 9.0743 10.7882C8.83462 11.3668 8.77191 12.0035 8.8941 12.6178C9.01629 13.2321 9.31788 13.7963 9.76075 14.2392C10.2036 14.682 10.7679 14.9836 11.3821 15.1058C11.9964 15.228 12.6331 15.1653 13.2118 14.9256C13.7904 14.6859 14.2849 14.2801 14.6329 13.7593C14.9809 13.2386 15.1666 12.6263 15.1666 12C15.1657 11.1604 14.8318 10.3555 14.2381 9.76181C13.6444 9.16813 12.8395 8.83422 11.9999 8.83334ZM12.8333 13.3333C12.8333 13.4659 12.7806 13.5931 12.6868 13.6869C12.593 13.7807 12.4659 13.8333 12.3333 13.8333C12.2006 13.8333 12.0735 13.7807 11.9797 13.6869C11.8859 13.5931 11.8333 13.4659 11.8333 13.3333V11.1667H11.6666C11.534 11.1667 11.4068 11.114 11.313 11.0202C11.2193 10.9265 11.1666 10.7993 11.1666 10.6667C11.1666 10.5341 11.2193 10.4069 11.313 10.3131C11.4068 10.2193 11.534 10.1667 11.6666 10.1667H12.3333C12.4659 10.1667 12.593 10.2193 12.6868 10.3131C12.7806 10.4069 12.8333 10.5341 12.8333 10.6667V13.3333Z" fill="#BD1E22"/>
</svg>
