<svg width="16" height="16" viewBox="0 0 16 16" fill="none" xmlns="http://www.w3.org/2000/svg">
<path d="M9.1594 7.43657C9.4743 7.73612 9.74855 8.07875 9.98069 8.46388C10.5675 8.09187 11.2608 7.87642 12.0029 7.87642C12.3173 7.87642 12.6227 7.91531 12.9152 7.98808C12.445 7.36541 11.8786 6.9044 11.1622 6.56305C10.6251 7.05879 9.92796 7.37981 9.1594 7.43657ZM8.18325 11.7407C8.18325 10.6621 8.62251 9.68545 9.32934 8.98377C8.93116 8.28558 8.38774 7.75959 7.68182 7.38947C7.10015 7.79457 6.39606 8.03211 5.63806 8.03211C4.88225 8.03211 4.18003 7.79596 3.59935 7.39299C2.12859 8.19769 1.20361 9.87238 1.20361 11.8062V14.7727H9.63749C8.75227 14.0643 8.18325 12.9685 8.18325 11.7407ZM9.25132 4.37665C9.25132 5.15965 9.00662 5.88586 8.59067 6.48132L8.61165 6.59523C8.71166 6.60733 8.81272 6.6134 8.91396 6.6134C10.3015 6.6134 11.4303 5.4714 11.4303 4.0677C11.4303 2.66397 10.3015 1.52197 8.91396 1.52197C8.62458 1.52174 8.33733 1.57203 8.06486 1.67065C8.79327 2.3399 9.25132 3.30518 9.25132 4.37665Z" fill="#BD1E22"/>
<path d="M6.28178 7.12169C7.78139 6.76194 8.70879 5.24044 8.3532 3.72333C7.99762 2.20623 6.49368 1.26801 4.99408 1.62777C3.49448 1.98752 2.56707 3.50902 2.92266 5.02612C3.27825 6.54323 4.78218 7.48145 6.28178 7.12169Z" fill="#BD1E22"/>
<path d="M15.0001 11.7407C15.0001 10.0689 13.6556 8.70871 12.0031 8.70871C10.3505 8.70871 9.0061 10.0689 9.0061 11.7407C9.0061 13.4125 10.3505 14.7727 12.0031 14.7727C13.6556 14.7727 15.0001 13.4126 15.0001 11.7407ZM10.2575 12.1568V11.3245H11.5917V9.97472H12.4144V11.3245H13.7486V12.1568H12.4144V13.5067H11.5917V12.1568H10.2575Z" fill="#BD1E22"/>
</svg>
