<svg width="16" height="16" viewBox="0 0 16 16" fill="none" xmlns="http://www.w3.org/2000/svg">
<path d="M3.99996 1.33333C3.25996 1.33333 2.66663 1.92667 2.66663 2.66667V13.3333C2.66663 13.687 2.8071 14.0261 3.05715 14.2761C3.3072 14.5262 3.64634 14.6667 3.99996 14.6667H6.66663V13.3933L8.05996 12H3.99996V10.6667H9.39329L10.7266 9.33333H3.99996V8H12.06L13.3333 6.72667V5.33333L9.33329 1.33333H3.99996ZM8.66663 2.33333L12.3333 6H8.66663V2.33333ZM13.4333 8.66667C13.384 8.66558 13.3349 8.67447 13.2891 8.6928C13.2433 8.71113 13.2016 8.73852 13.1666 8.77333L12.4866 9.45333L13.88 10.84L14.56 10.1667C14.7 10.02 14.7 9.78 14.56 9.64L13.6933 8.77333C13.6593 8.73903 13.6188 8.71191 13.5741 8.69358C13.5295 8.67526 13.4816 8.6661 13.4333 8.66667ZM12.0933 9.84667L7.99996 13.9467V15.3333H9.38663L13.4866 11.2333L12.0933 9.84667Z" fill="#BD1E22"/>
</svg>
