<svg width="16" height="16" viewBox="0 0 16 16" fill="none" xmlns="http://www.w3.org/2000/svg">
<path d="M6.10966 3.11244H10.2239C10.2694 3.11244 10.313 3.09529 10.3452 3.06476C10.3773 3.03423 10.3954 2.99283 10.3954 2.94965V0.833374H5.93823V2.94965C5.93823 2.99283 5.95629 3.03423 5.98844 3.06476C6.02059 3.09529 6.0642 3.11244 6.10966 3.11244Z" fill="#BD1E22"/>
<path d="M12.6239 0.833374H11.4239V2.94965C11.4221 3.25135 11.2951 3.5402 11.0704 3.75354C10.8458 3.96687 10.5416 4.08748 10.2239 4.08919H6.10961C5.7919 4.08748 5.48772 3.96687 5.26307 3.75354C5.03841 3.5402 4.91141 3.25135 4.90961 2.94965V0.833374H3.70961C3.30041 0.833374 2.90798 0.987734 2.61864 1.2625C2.3293 1.53726 2.16675 1.90992 2.16675 2.29849V13.3683C2.16675 13.7568 2.3293 14.1295 2.61864 14.4043C2.90798 14.679 3.30041 14.8334 3.70961 14.8334H12.6239C13.0331 14.8334 13.4255 14.679 13.7149 14.4043C14.0042 14.1295 14.1667 13.7568 14.1667 13.3683V2.29849C14.1667 1.90992 14.0042 1.53726 13.7149 1.2625C13.4255 0.987734 13.0331 0.833374 12.6239 0.833374ZM10.9096 12.2287H5.42389C5.28749 12.2287 5.15668 12.1773 5.06024 12.0857C4.96379 11.9941 4.90961 11.8699 4.90961 11.7404C4.90961 11.6108 4.96379 11.4866 5.06024 11.395C5.15668 11.3034 5.28749 11.252 5.42389 11.252H10.9096C11.046 11.252 11.1768 11.3034 11.2733 11.395C11.3697 11.4866 11.4239 11.6108 11.4239 11.7404C11.4239 11.8699 11.3697 11.9941 11.2733 12.0857C11.1768 12.1773 11.046 12.2287 10.9096 12.2287ZM10.9096 9.62407H5.42389C5.28749 9.62407 5.15668 9.57262 5.06024 9.48103C4.96379 9.38944 4.90961 9.26522 4.90961 9.1357C4.90961 9.00618 4.96379 8.88196 5.06024 8.79037C5.15668 8.69878 5.28749 8.64733 5.42389 8.64733H10.9096C11.046 8.64733 11.1768 8.69878 11.2733 8.79037C11.3697 8.88196 11.4239 9.00618 11.4239 9.1357C11.4239 9.26522 11.3697 9.38944 11.2733 9.48103C11.1768 9.57262 11.046 9.62407 10.9096 9.62407ZM10.9096 7.01942H5.42389C5.28749 7.01942 5.15668 6.96797 5.06024 6.87638C4.96379 6.78479 4.90961 6.66057 4.90961 6.53105C4.90961 6.40152 4.96379 6.27731 5.06024 6.18572C5.15668 6.09413 5.28749 6.04268 5.42389 6.04268H10.9096C11.046 6.04268 11.1768 6.09413 11.2733 6.18572C11.3697 6.27731 11.4239 6.40152 11.4239 6.53105C11.4239 6.66057 11.3697 6.78479 11.2733 6.87638C11.1768 6.96797 11.046 7.01942 10.9096 7.01942Z" fill="#BD1E22"/>
</svg>
