<svg width="14" height="14" viewBox="0 0 14 14" fill="none" xmlns="http://www.w3.org/2000/svg">
<path d="M7.26093 4.13042H10.3914V12.4782H7.26093V4.13042ZM3.60876 4.13042H6.7392V12.4782H3.60876V4.13042Z" fill="#BD1E22"/>
<path d="M12.7391 1H1.26088C1.11688 1 1 1.11688 1 1.26088V12.7391C1 12.8831 1.11688 13 1.26088 13H3.08697V3.86956C3.08697 3.72556 3.20385 3.60868 3.34785 3.60868H10.6522C10.7962 3.60868 10.9131 3.72556 10.9131 3.86956V13H12.7391C12.8831 13 13 12.8831 13 12.7391V1.26088C13 1.11688 12.8831 1 12.7391 1ZM6.14122 3.01079C6.09212 3.05956 6.02573 3.08693 5.95653 3.08693C5.88732 3.08693 5.82093 3.05956 5.77183 3.01079L5.4348 2.67322L5.09776 3.01079C4.99602 3.11253 4.83062 3.11253 4.72888 3.01079C4.62714 2.90905 4.62714 2.74365 4.72888 2.64191L5.25061 2.12018C5.35235 2.01844 5.51775 2.01844 5.61949 2.12018L6.14122 2.64191C6.24296 2.74365 6.24296 2.90851 6.14122 3.01079ZM9.27166 2.48903L8.74992 3.01077C8.70083 3.05954 8.63443 3.08691 8.56523 3.08691C8.49603 3.08691 8.42963 3.05954 8.38053 3.01077L7.8588 2.48903C7.75706 2.3873 7.75706 2.2219 7.8588 2.12016C7.96054 2.01842 8.12594 2.01842 8.22768 2.12016L8.56525 2.45719L8.90229 2.12016C9.00403 2.01842 9.16943 2.01842 9.27117 2.12016C9.37286 2.22192 9.37339 2.38678 9.27166 2.48903ZM11.6956 7.7826C11.5516 7.7826 11.4348 7.66572 11.4348 7.52172C11.4348 7.37772 11.5516 7.26087 11.6956 7.26087C11.8396 7.26087 11.9565 7.37774 11.9565 7.52174C11.9565 7.66574 11.8396 7.7826 11.6956 7.7826ZM11.6956 6.73914C11.5516 6.73914 11.4348 6.62226 11.4348 6.47826C11.4348 6.33426 11.5516 6.21738 11.6956 6.21738C11.8396 6.21738 11.9565 6.33426 11.9565 6.47826C11.9565 6.62226 11.8396 6.73914 11.6956 6.73914Z" fill="#BD1E22"/>
</svg>
