<svg width="16" height="16" viewBox="0 0 16 16" fill="none" xmlns="http://www.w3.org/2000/svg">
<g clip-path="url(#clip0_887_1131)">
<path d="M8.00004 0.833333C7.54437 0.838333 7.09004 0.886666 6.64337 0.978C6.68905 1.18667 6.68739 1.40292 6.63849 1.61085C6.58959 1.81879 6.49471 2.01312 6.36082 2.17956C6.22694 2.346 6.05745 2.48032 5.86482 2.57263C5.67219 2.66494 5.46132 2.71291 5.24771 2.713C5.00773 2.71062 4.77221 2.64787 4.56285 2.53055C4.35349 2.41323 4.17702 2.24511 4.04971 2.04167C3.25314 2.57036 2.5704 3.2531 2.04171 4.04967C2.45504 4.30833 2.70837 4.75967 2.71304 5.24733C2.71286 5.62648 2.56213 5.99003 2.29397 6.25806C2.02581 6.5261 1.66218 6.67667 1.28304 6.67667C1.18116 6.67133 1.08015 6.65512 0.981707 6.62833C0.888265 7.07972 0.838591 7.53907 0.833374 8C0.838797 8.46092 0.888469 8.92025 0.981707 9.37167C1.08015 9.34488 1.18116 9.32867 1.28304 9.32333C1.66213 9.32333 2.0257 9.47386 2.29385 9.74182C2.562 10.0098 2.71278 10.3732 2.71304 10.7523C2.71066 10.9923 2.64791 11.2278 2.53059 11.4372C2.41327 11.6466 2.24515 11.823 2.04171 11.9503C2.57037 12.747 3.25311 13.4299 4.04971 13.9587C4.17695 13.7552 4.35335 13.5871 4.56265 13.4697C4.77195 13.3523 5.00742 13.2895 5.24737 13.287C5.62652 13.2872 5.99007 13.4379 6.25811 13.7061C6.52614 13.9742 6.67671 14.3379 6.67671 14.717C6.67137 14.8189 6.65516 14.9199 6.62837 15.0183C7.07971 15.1117 7.53904 15.1617 8.00004 15.1667C8.46097 15.1615 8.92032 15.1118 9.37171 15.0183C9.34492 14.9199 9.32872 14.8189 9.32337 14.717C9.32337 14.3379 9.4739 13.9743 9.74186 13.7062C10.0098 13.438 10.3733 13.2873 10.7524 13.287C10.9924 13.2894 11.2279 13.3522 11.4373 13.4696C11.6467 13.587 11.8231 13.7552 11.9504 13.9587C12.7471 13.4299 13.4299 12.7471 13.9587 11.9503C13.7553 11.8231 13.5871 11.6467 13.4697 11.4374C13.3523 11.2281 13.2895 10.9926 13.287 10.7527C13.2872 10.3735 13.438 10.01 13.7061 9.74193C13.9743 9.4739 14.3379 9.32333 14.717 9.32333C14.8193 9.32867 14.9197 9.34478 15.0184 9.37167C15.1117 8.92033 15.1617 8.461 15.1667 8C15.166 7.53895 15.1208 7.07904 15.0317 6.62667C14.929 6.65497 14.8235 6.67175 14.717 6.67667C14.338 6.67667 13.9744 6.52614 13.7062 6.25818C13.4381 5.99022 13.2873 5.62675 13.287 5.24767C13.2897 5.00509 13.354 4.76718 13.474 4.55633C13.5939 4.34547 13.7656 4.16859 13.9727 4.04233C13.4428 3.24259 12.7577 2.55738 11.958 2.02733C11.8318 2.23448 11.6549 2.4061 11.444 2.52605C11.2332 2.646 10.9953 2.71033 10.7527 2.713C10.3736 2.71282 10.01 2.56208 9.74198 2.29393C9.47394 2.02577 9.32337 1.66214 9.32337 1.283C9.32829 1.17658 9.34507 1.07104 9.37337 0.968333C8.92101 0.879262 8.4611 0.834053 8.00004 0.833333Z" fill="#BD1E22" stroke="#BD1E22" stroke-width="0.333333" stroke-linecap="round" stroke-linejoin="round"/>
<path d="M11.4177 5.30267L9.98503 6.73533C9.96261 6.75785 9.93596 6.77571 9.90661 6.7879C9.87727 6.80009 9.8458 6.80637 9.81403 6.80637C9.78225 6.80637 9.75079 6.80009 9.72144 6.7879C9.6921 6.77571 9.66545 6.75785 9.64303 6.73533L9.26236 6.35467C9.23985 6.33224 9.22198 6.3056 9.20979 6.27625C9.1976 6.24691 9.19133 6.21544 9.19133 6.18367C9.19133 6.15189 9.1976 6.12043 9.20979 6.09108C9.22198 6.06174 9.23985 6.03509 9.26236 6.01267L10.6904 4.58467C10.2714 4.32767 9.77822 4.21885 9.29 4.27567C8.80178 4.33249 8.34679 4.55165 7.99803 4.898C7.70686 5.19001 7.50391 5.55819 7.41247 5.96029C7.32102 6.36239 7.34479 6.78212 7.48103 7.17133L4.54436 10.108C4.1657 10.4867 4.1607 11.0917 4.53336 11.4647C4.90603 11.837 5.51103 11.832 5.89003 11.453L8.82603 8.517C9.21533 8.65338 9.6352 8.67721 10.0374 8.58576C10.4397 8.49431 10.808 8.29129 11.1 8C11.4483 7.65146 11.6691 7.19581 11.7268 6.70648C11.7845 6.21714 11.6757 5.72264 11.418 5.30267" stroke="white" stroke-width="0.333333" stroke-linecap="round" stroke-linejoin="round"/>
</g>
<defs>
<clipPath id="clip0_887_1131">
<rect width="16" height="16" fill="white"/>
</clipPath>
</defs>
</svg>
