<svg width="16" height="16" viewBox="0 0 16 16" fill="none" xmlns="http://www.w3.org/2000/svg">
<path d="M14 7.40667V3.33333C14 2.97971 13.8595 2.64057 13.6095 2.39053C13.3594 2.14048 13.0203 2 12.6667 2H9.88C9.6 1.22667 8.86667 0.666668 8 0.666668C7.13333 0.666668 6.4 1.22667 6.12 2H3.33333C2.6 2 2 2.6 2 3.33333V12.6667C2 13.0203 2.14048 13.3594 2.39052 13.6095C2.64057 13.8595 2.97971 14 3.33333 14H7.40667C8.24667 14.8267 9.39333 15.3333 10.6667 15.3333C13.2467 15.3333 15.3333 13.2467 15.3333 10.6667C15.3333 9.39334 14.8267 8.24667 14 7.40667ZM8 2C8.36667 2 8.66667 2.3 8.66667 2.66667C8.66667 3.03333 8.36667 3.33333 8 3.33333C7.63333 3.33333 7.33333 3.03333 7.33333 2.66667C7.33333 2.3 7.63333 2 8 2ZM4 4.66667H12V6H4V4.66667ZM6.05333 11.3333H4V10H6.05333C6.02 10.22 6 10.44 6 10.6667C6 10.8933 6.02 11.1133 6.05333 11.3333ZM4 8.66667V7.33333H7.40667C7 7.71334 6.69333 8.16667 6.45333 8.66667H4ZM10.6667 14C8.82667 14 7.33333 12.5067 7.33333 10.6667C7.33333 8.82667 8.82667 7.33333 10.6667 7.33333C12.5067 7.33333 14 8.82667 14 10.6667C14 12.5067 12.5067 14 10.6667 14ZM11 10.8333L12.9067 11.96L12.4067 12.7733L10 11.3333V8H11V10.8333Z" fill="#BD1E22"/>
</svg>
