<svg width="16" height="17" viewBox="0 0 16 17" fill="none" xmlns="http://www.w3.org/2000/svg">
<g clip-path="url(#clip0_1_2333)">
<path d="M8.02189 8.95801C10.2033 8.95801 11.9717 7.17655 11.9717 4.979C11.9717 2.78146 10.2033 1 8.02189 1C5.84047 1 4.07208 2.78146 4.07208 4.979C4.07208 7.17655 5.84047 8.95801 8.02189 8.95801Z" fill="#BD1E22"/>
<path d="M7.33726 16.0627C7.19223 15.9182 7.09759 15.7303 7.06752 15.527C7.03745 15.3238 7.07358 15.1162 7.17049 14.9353L7.40309 14.4932L6.92472 14.3473C6.72965 14.2858 6.55982 14.1619 6.44102 13.9943C6.32221 13.8268 6.26091 13.6247 6.26642 13.4189V12.5126C6.26605 12.3076 6.33113 12.108 6.45205 11.9432C6.57297 11.7784 6.7433 11.6572 6.93789 11.5974L7.41625 11.4515L7.18804 11.0094C7.09398 10.831 7.05818 10.6273 7.08576 10.4273C7.11334 10.2272 7.20289 10.0411 7.34165 9.89527C7.00401 9.85077 6.66398 9.82715 6.32347 9.82453C5.31773 9.80068 4.31915 10.0007 3.39896 10.4103C2.47877 10.8199 1.65964 11.4291 1 12.1943V15.6206C1 15.7379 1.04624 15.8503 1.12854 15.9332C1.21085 16.0161 1.32247 16.0627 1.43887 16.0627H7.33726Z" fill="#BD1E22"/>
<path d="M14.9121 12.3667L14.0344 12.1014C13.9737 11.883 13.8883 11.6724 13.7798 11.4736L14.2187 10.6513C14.2357 10.6208 14.2419 10.5853 14.2363 10.5508C14.2307 10.5163 14.2137 10.4847 14.188 10.4612L13.5516 9.81569C13.5271 9.79166 13.4959 9.7758 13.4621 9.77027C13.4284 9.76473 13.3937 9.76978 13.3629 9.78474L12.551 10.2269C12.3512 10.1174 12.141 10.0285 11.9234 9.96159L11.6557 9.07736C11.6439 9.04476 11.6224 9.01663 11.5941 8.99684C11.5659 8.97705 11.5322 8.96657 11.4977 8.96684H10.5849C10.5507 8.9678 10.5176 8.97934 10.4901 8.99991C10.4626 9.02047 10.4421 9.04906 10.4313 9.08178L10.168 9.96601C9.94646 10.0315 9.73299 10.122 9.5316 10.2357L8.73725 9.79358C8.70637 9.77705 8.67111 9.77071 8.63645 9.77547C8.6018 9.78023 8.56951 9.79585 8.54415 9.82011L7.89901 10.4567C7.87361 10.4814 7.85687 10.5137 7.85133 10.5488C7.84579 10.5839 7.85174 10.6199 7.86829 10.6513L8.30716 11.4559C8.18947 11.6556 8.09381 11.8676 8.02189 12.0881L7.14416 12.3578C7.11096 12.3675 7.08182 12.3879 7.06121 12.4158C7.0406 12.4438 7.02965 12.4778 7.03005 12.5126V13.4189C7.02965 13.4537 7.0406 13.4877 7.06121 13.5156C7.08182 13.5436 7.11096 13.564 7.14416 13.5736L8.02189 13.8433C8.08772 14.0598 8.17598 14.2688 8.28522 14.4667L7.84635 15.3067C7.8298 15.3381 7.82384 15.3741 7.82939 15.4092C7.83493 15.4443 7.85167 15.4766 7.87707 15.5012L8.53098 16.1423C8.55634 16.1666 8.58863 16.1822 8.62329 16.1869C8.65794 16.1917 8.6932 16.1854 8.72408 16.1688L9.54477 15.7267C9.73994 15.8328 9.94595 15.9173 10.1592 15.9787L10.4225 16.8851C10.4335 16.9185 10.4547 16.9476 10.4831 16.9682C10.5114 16.9888 10.5455 16.9999 10.5805 17H11.4802C11.5144 16.999 11.5475 16.9875 11.575 16.9669C11.6025 16.9464 11.623 16.9178 11.6338 16.8851L11.8971 15.9787C12.1077 15.9177 12.3108 15.8332 12.5027 15.7267L13.3322 16.1688C13.3631 16.1854 13.3983 16.1917 13.433 16.1869C13.4677 16.1822 13.4999 16.1666 13.5253 16.1423L14.166 15.5012C14.1901 15.4757 14.2056 15.4432 14.2104 15.4083C14.2151 15.3733 14.2088 15.3378 14.1924 15.3067L13.7535 14.4755C13.8583 14.2817 13.9421 14.0772 14.0037 13.8654L14.8814 13.5957C14.9144 13.5851 14.9434 13.5645 14.9645 13.5369C14.9857 13.5093 14.998 13.4758 14.9999 13.441V12.5258C15.001 12.4938 14.9934 12.462 14.9779 12.434C14.9624 12.406 14.9397 12.3827 14.9121 12.3667ZM11.0369 14.4534C10.7468 14.4543 10.463 14.3685 10.2214 14.2067C9.97973 14.045 9.79117 13.8147 9.67955 13.5449C9.56794 13.2752 9.53828 12.9782 9.59434 12.6914C9.6504 12.4047 9.78966 12.1412 9.99449 11.9342C10.1993 11.7273 10.4605 11.5862 10.7449 11.5288C11.0294 11.4715 11.3244 11.5005 11.5925 11.6121C11.8606 11.7238 12.0897 11.913 12.251 12.1559C12.4123 12.3989 12.4983 12.6845 12.4984 12.9768C12.4984 13.3677 12.3445 13.7426 12.0706 14.0194C11.7966 14.2962 11.4249 14.4523 11.0369 14.4534Z" fill="#BD1E22"/>
</g>
<defs>
<clipPath id="clip0_1_2333">
<rect width="16" height="17" fill="white"/>
</clipPath>
</defs>
</svg>
